<svg width="276" height="102" viewBox="0 0 276 102" fill="none" xmlns="http://www.w3.org/2000/svg">
<g clip-path="url(#clip0)">
<path d="M86.868 55.626C84.107 48.126 81.126 40.654 79.568 32.814C78.5038 27.9821 78.2862 23.0022 78.925 18.096C79.1851 16.3735 79.6022 14.6785 80.171 13.032H14.65C14.0812 14.6785 13.6641 16.3735 13.404 18.096C12.7652 23.0022 12.9827 27.9821 14.047 32.814C15.612 40.654 18.592 48.125 21.347 55.626C24.102 63.127 26.685 70.797 27.383 78.757C28.076 86.647 26.77 94.94 22.364 101.519H87.878C92.284 94.945 93.59 86.652 92.897 78.757C92.201 70.792 89.629 63.127 86.868 55.626Z" fill="#070609"/>
<path d="M8.31701 49.695C11.078 57.195 13.655 64.866 14.353 72.826C14.8718 78.0989 14.3277 83.4222 12.753 88.481H78.267C79.8444 83.4227 80.3886 78.0989 79.867 72.826C79.167 64.862 76.593 57.196 73.831 49.695C71.069 42.194 68.09 34.723 66.531 26.883C65.4668 22.0512 65.2492 17.0713 65.888 12.165C66.498 7.73981 68.2445 3.54821 70.957 -0.000976562H5.44602C2.73227 3.54752 0.985697 7.73944 0.377016 12.165C-0.261819 17.0713 -0.0442588 22.0512 1.02001 26.883C2.58001 34.72 5.56101 42.194 8.31701 49.695Z" fill="#FF6A14"/>
<path d="M103.52 34.5741C103.39 40.9831 107.971 42.9471 113.682 42.9471C116.951 42.9471 121.925 41.1581 121.925 36.6221C121.925 33.0881 118.436 31.6931 115.516 30.9951L108.583 29.2951C104.92 28.3781 101.561 26.6781 101.561 21.7951C101.561 18.7401 103.525 13.0281 112.291 13.0281C118.491 13.0281 123.804 16.2971 123.804 22.7121H120.838C120.619 18.0021 116.781 15.5601 112.338 15.5601C108.281 15.5601 104.538 17.1301 104.538 21.7601C104.538 24.6811 106.676 25.9471 109.248 26.5151L116.839 28.3891C121.245 29.5651 124.908 31.5291 124.908 36.5891C124.908 38.7271 124.036 45.4891 113.001 45.4891C105.63 45.4891 100.222 42.1751 100.571 34.5891L103.52 34.5741Z" fill="#070609"/>
<path d="M128.032 13.686H130.778V44.826H128.032V13.686Z" fill="#070609"/>
<path d="M135.009 13.686H137.755V18.092H135.009V13.686ZM135.009 22.318H137.755V44.826H135.009V22.318Z" fill="#070609"/>
<path d="M141.947 22.3201H144.479V26.1131H144.608C145.259 24.7256 146.307 23.5623 147.619 22.7701C148.931 21.9778 150.448 21.5923 151.979 21.6621C154.944 21.6621 157.606 23.1021 158.433 26.0681C159.061 24.7126 160.074 23.5719 161.346 22.7884C162.618 22.0048 164.092 21.6131 165.585 21.6621C170.559 21.6621 173.041 24.2791 173.041 29.5571V44.8201H170.295V29.6841C170.295 25.9761 168.944 23.9721 164.972 23.9721C160.217 23.9721 158.867 27.8991 158.867 32.0861V44.8201H156.121V29.5551C156.121 26.5001 154.945 23.9731 151.411 23.9731C146.701 23.9731 144.693 27.5511 144.693 32.2611V44.8201H141.947V22.3201Z" fill="#070609"/>
<path d="M190.665 28.9071C190.535 25.5071 187.919 23.9781 184.779 23.9781C182.337 23.9781 179.456 24.9401 179.456 27.8611C179.456 30.2611 182.202 31.1751 184.121 31.6541L187.784 32.4811C190.924 32.9591 194.193 34.7941 194.193 38.7161C194.193 43.6001 189.354 45.4741 185.162 45.4741C179.884 45.4741 176.395 43.0741 175.917 37.5351H178.663C178.882 41.2431 181.628 43.1621 185.292 43.1621C187.909 43.1621 191.442 42.0261 191.442 38.8861C191.442 36.2691 189 35.3971 186.513 34.7861L182.979 33.9991C179.401 33.0821 176.699 31.7761 176.699 27.9781C176.699 23.3981 181.19 21.6531 185.162 21.6531C189.698 21.6531 193.186 24.0101 193.406 28.8951H190.665V28.9071Z" fill="#070609"/>
<path d="M201.435 22.3181H206.015V24.6311H201.435V39.8071C201.435 41.5961 201.699 42.643 203.658 42.772C204.445 42.771 205.232 42.7276 206.015 42.642V44.9991C205.188 44.9991 204.4 45.0841 203.573 45.0841C199.91 45.0841 198.644 43.8631 198.689 40.0251V24.6251H194.762V22.3121H198.692V15.5601H201.438L201.435 22.3181Z" fill="#070609"/>
<path d="M229.041 33.572C229.041 40.026 225.248 45.479 218.4 45.479C211.552 45.479 207.759 40.027 207.759 33.572C207.759 27.117 211.552 21.665 218.4 21.665C225.248 21.665 229.041 27.115 229.041 33.572ZM210.506 33.572C210.506 38.327 213.167 43.166 218.401 43.166C223.635 43.166 226.296 38.327 226.296 33.572C226.296 28.817 223.634 23.978 218.401 23.978C213.168 23.978 210.51 28.815 210.51 33.572H210.506Z" fill="#070609"/>
<path d="M232.007 22.315H234.753V26.198H234.843C235.461 24.8157 236.475 23.6475 237.756 22.8405C239.038 22.0334 240.529 21.6237 242.043 21.663C248.368 21.663 250.287 24.977 250.287 30.34V44.818H247.537V30.776C247.537 26.938 246.271 23.976 241.825 23.976C237.419 23.976 234.892 27.29 234.758 31.696V44.824H232.007V22.315Z" fill="#070609"/>
<path d="M255.995 34.3101C255.995 38.3221 258.178 43.166 263.411 43.166C267.423 43.166 269.606 40.853 270.478 37.41H273.229C272.053 42.51 269.129 45.479 263.416 45.479C256.264 45.479 253.254 39.9791 253.254 33.5721C253.254 27.6411 256.264 21.665 263.416 21.665C270.616 21.665 273.533 27.9901 273.316 34.3141H255.995V34.3101ZM270.563 31.997C270.433 27.855 267.817 23.9731 263.411 23.9731C258.876 23.9731 256.478 27.9 255.995 31.997H270.563Z" fill="#070609"/>
<path d="M117.734 78.0591C117.734 82.8141 121.268 84.7331 125.629 84.7331C130.429 84.7331 132.213 82.3331 132.213 80.0231C132.283 79.1865 132.067 78.3508 131.6 77.6534C131.132 76.9559 130.442 76.4382 129.641 76.1852C127.418 75.3582 124.667 74.7851 120.351 73.6131C114.988 72.2131 113.458 68.9481 113.458 65.7181C113.458 59.4381 119.214 56.5571 124.841 56.5571C131.295 56.5571 136.793 60.0012 136.793 66.5002H131.341C131.041 62.4882 128.42 61.0002 124.623 61.0002C122.091 61.0002 118.911 61.9171 118.911 65.0571C118.911 67.2801 120.396 68.4162 122.619 69.0692C123.098 69.1992 129.99 70.9881 131.605 71.4691C133.343 71.9492 134.877 72.9851 135.971 74.4187C137.066 75.8522 137.66 77.6047 137.665 79.4081C137.665 86.3861 131.43 89.1771 125.28 89.1771C118.173 89.1771 112.411 85.7771 112.28 78.0531H117.732L117.734 78.0591Z" fill="#FF6A14"/>
<path d="M138.144 65.8931H143.597L149.483 82.7291H149.573L155.285 65.8931H160.474L151.707 89.6611C150.092 93.7181 148.961 97.3811 143.728 97.3811C142.575 97.3816 141.424 97.2934 140.284 97.1171V92.9301C141.06 93.094 141.849 93.1943 142.641 93.2301C144.909 93.2301 145.562 92.0091 146.13 90.0901L146.698 88.3461L138.144 65.8931Z" fill="#FF6A14"/>
<path d="M165.926 81.199C166.226 84.12 168.368 85.126 171.026 85.126C172.945 85.126 176.174 84.732 176.04 82.161C175.911 79.544 172.287 79.24 168.669 78.408C165.006 77.62 161.427 76.315 161.427 71.734C161.427 66.805 166.75 65.28 170.847 65.28C175.472 65.28 179.699 67.154 180.267 72.213H175.079C174.601 69.813 172.722 69.203 170.499 69.203C169.059 69.203 166.399 69.552 166.399 71.516C166.399 73.958 170.062 74.352 173.725 75.134C177.343 75.961 181.007 77.272 181.007 81.718C181.007 87.081 175.599 89.044 170.934 89.044C165.222 89.044 161.076 86.512 160.946 81.194H165.926V81.199Z" fill="#FF6A14"/>
<path d="M181.455 65.893H185.208V59.135H190.185V65.893H194.676V69.605H190.185V81.641C190.185 83.689 190.36 84.741 192.585 84.741C193.287 84.7698 193.99 84.7114 194.678 84.567V88.405C193.609 88.5555 192.532 88.642 191.453 88.664C186.22 88.664 185.348 86.656 185.218 82.908V69.608H181.465V65.908L181.455 65.893Z" fill="#FF6A14"/>
<path d="M201.036 78.453C201.036 81.987 202.955 85.127 207.097 85.127C210.018 85.127 211.722 83.861 212.597 81.374H217.307C216.26 86.303 211.984 89.049 207.1 89.049C199.993 89.049 196.066 84.165 196.066 77.187C196.066 70.778 200.253 65.28 206.966 65.28C214.073 65.28 218.439 71.689 217.607 78.453H201.036ZM212.636 75.184C212.417 72.044 210.368 69.208 206.964 69.208C206.18 69.2028 205.403 69.3541 204.678 69.6531C203.953 69.9521 203.295 70.3928 202.742 70.9494C202.19 71.506 201.754 72.1672 201.461 72.8944C201.167 73.6215 201.022 74.3999 201.033 75.184H212.636Z" fill="#FF6A14"/>
<path d="M220.314 65.8931H225.024V69.033H225.154C225.851 67.8286 226.867 66.8405 228.091 66.1781C229.315 65.5157 230.698 65.2049 232.087 65.2801C234.833 65.2801 237.41 66.456 238.412 69.033C239.167 67.852 240.215 66.8859 241.453 66.2284C242.691 65.5709 244.078 65.2442 245.479 65.2801C250.234 65.2801 253.025 67.4181 253.025 72.8711V88.4411H248.051V75.2681C248.051 71.6501 247.832 69.2081 243.951 69.2081C240.592 69.2081 239.151 71.3911 239.151 75.2291V88.4461H234.174V73.9671C234.174 70.8271 233.212 69.2121 230.207 69.2121C227.635 69.2121 225.278 71.3501 225.278 75.0581V88.4501H220.304V65.8931H220.314Z" fill="#FF6A14"/>
<path d="M260.92 81.199C261.22 84.12 263.362 85.126 266.02 85.126C267.939 85.126 271.169 84.732 271.034 82.161C270.905 79.544 267.281 79.24 263.663 78.408C260 77.62 256.421 76.315 256.421 71.734C256.421 66.805 261.744 65.28 265.841 65.28C270.466 65.28 274.692 67.154 275.261 72.213H270.073C269.594 69.813 267.715 69.203 265.493 69.203C264.053 69.203 261.393 69.552 261.393 71.516C261.393 73.958 265.056 74.352 268.72 75.134C272.338 75.961 276.001 77.272 276.001 81.718C276.001 87.081 270.593 89.044 265.928 89.044C260.216 89.044 256.07 86.512 255.94 81.194H260.92V81.199Z" fill="#FF6A14"/>
<path d="M40.851 57.754C40.5552 57.7534 40.2716 57.6357 40.0624 57.4265C39.8533 57.2173 39.7355 56.9338 39.735 56.638V34.138C39.7355 33.8422 39.8533 33.5586 40.0624 33.3494C40.2716 33.1403 40.5552 33.0225 40.851 33.022V33.022C41.1468 33.0225 41.4304 33.1403 41.6395 33.3494C41.8487 33.5586 41.9665 33.8422 41.967 34.138V56.638C41.9657 56.9335 41.8477 57.2166 41.6387 57.4256C41.4297 57.6346 41.1466 57.7527 40.851 57.754Z" fill="#070609"/>
<path d="M36.391 56.7379C36.0951 56.7374 35.8116 56.6196 35.6024 56.4104C35.3932 56.2013 35.2755 55.9177 35.275 55.6219V35.1519C35.2755 34.8561 35.3932 34.5725 35.6024 34.3633C35.8116 34.1542 36.0951 34.0364 36.391 34.0359V34.0359C36.6868 34.0364 36.9703 34.1542 37.1795 34.3633C37.3887 34.5725 37.5064 34.8561 37.507 35.1519V55.6209C37.5072 55.7676 37.4785 55.9129 37.4226 56.0484C37.3666 56.184 37.2844 56.3072 37.1807 56.4109C37.0771 56.5147 36.9539 56.597 36.8184 56.6531C36.6829 56.7092 36.5376 56.738 36.391 56.7379V56.7379Z" fill="#070609"/>
<path d="M31.935 52.5619C31.639 52.5614 31.3553 52.4435 31.1461 52.2341C30.9369 52.0247 30.8192 51.7409 30.819 51.4449V39.3279C30.8195 39.0321 30.9372 38.7485 31.1464 38.5394C31.3556 38.3302 31.6391 38.2124 31.935 38.2119V38.2119C32.2308 38.2124 32.5143 38.3302 32.7235 38.5394C32.9327 38.7485 33.0504 39.0321 33.051 39.3279V51.4489C33.0489 51.744 32.9305 52.0263 32.7216 52.2346C32.5127 52.443 32.23 52.5606 31.935 52.5619Z" fill="#070609"/>
<path d="M45.307 56.7379C45.6028 56.7374 45.8863 56.6196 46.0955 56.4104C46.3047 56.2013 46.4224 55.9177 46.423 55.6219V35.1519C46.4224 34.8561 46.3047 34.5725 46.0955 34.3633C45.8863 34.1542 45.6028 34.0364 45.307 34.0359V34.0359C45.0112 34.0364 44.7276 34.1542 44.5184 34.3633C44.3093 34.5725 44.1915 34.8561 44.191 35.1519V55.6209C44.1907 55.7676 44.2194 55.9129 44.2754 56.0484C44.3314 56.184 44.4135 56.3072 44.5172 56.4109C44.6209 56.5147 44.744 56.597 44.8795 56.6531C45.015 56.7092 45.1603 56.738 45.307 56.7379V56.7379Z" fill="#070609"/>
<path d="M49.763 52.5619C50.059 52.5614 50.3427 52.4435 50.5519 52.2341C50.7611 52.0247 50.8787 51.7409 50.879 51.4449V39.3279C50.8784 39.0321 50.7607 38.7485 50.5515 38.5394C50.3423 38.3302 50.0588 38.2124 49.763 38.2119V38.2119C49.4672 38.2124 49.1836 38.3302 48.9744 38.5394C48.7653 38.7485 48.6475 39.0321 48.647 39.3279V51.4489C48.6491 51.744 48.7674 52.0263 48.9763 52.2346C49.1853 52.443 49.4679 52.5606 49.763 52.5619Z" fill="#070609"/>
</g>
<defs>
<clipPath id="clip0">
<rect width="276" height="101.518" fill="white"/>
</clipPath>
</defs>
</svg>
